<svg width="706" height="112" viewBox="0 0 706 112" fill="none" xmlns="http://www.w3.org/2000/svg">
<path d="M0.6 112L39.64 22.72H19.8V-7.62939e-06H131L179.64 112H136.44L124.28 84H56.12L43.96 112H0.6ZM66.04 61.28H114.36L97.4 22.72H83L66.04 61.28ZM166.5 22.72V-7.62939e-06H232.1V112H190.34V22.72H166.5ZM248.062 22.72V-7.62939e-06H438.143V41.28L396.383 35.52V22.72H313.663V89.28H396.383V76.48L438.143 70.72V112H271.903V22.72H248.062Z" fill="#FFCD28"/>
<path d="M455.675 44.8V-7.62939e-06H634.715V44.8L592.955 39.04V22.72H566.075V112H524.315V22.72H497.435V39.04L455.675 44.8ZM639.469 22.72V-7.62939e-06H705.069V112H663.309V22.72H639.469Z" fill="#1E3A8A"/>
</svg>
